<svg width="894" height="435" viewBox="0 0 894 435" fill="none" xmlns="http://www.w3.org/2000/svg">
<path d="M109 1.99999V212H80.5L82.3 77L82 41H81.4L79.3 77L68.5 212H41.8L31 77L28.6 41H28L27.7 77L29.5 212H1V1.99999H49.9L53.5 121.7L55 155H55.6L56.8 121.7L60.1 1.99999H109ZM170.758 1.99999L187.258 212H154.258L152.458 161.9H144.058L142.258 212H112.258L128.758 1.99999H170.758ZM144.958 134.9H151.558L149.458 71.3L148.558 35H147.958L147.058 71.3L144.958 134.9ZM220.258 1.99999V212H190.258V1.99999H220.258ZM307.293 1.99999V212H269.793L249.093 50H248.493L253.293 117.5L254.793 212H226.293V1.99999H263.793L284.493 164H285.093L280.293 96.5L278.793 1.99999H307.293ZM372.098 1.99999V29H357.098V212H327.098V29H312.098V1.99999H372.098ZM418.586 1.99999V29H406.586V90.8H417.086V117.8H406.586V185H420.086V212H376.586V1.99999H418.586ZM505.633 1.99999V212H468.133L447.433 50H446.833L451.633 117.5L453.133 212H424.633V1.99999H462.133L482.833 164H483.433L478.633 96.5L477.133 1.99999H505.633ZM567.438 1.99999L583.938 212H550.938L549.138 161.9H540.738L538.938 212H508.938L525.438 1.99999H567.438ZM541.638 134.9H548.238L546.138 71.3L545.238 35H544.638L543.738 71.3L541.638 134.9ZM667.938 1.99999V212H630.438L609.738 50H609.138L613.938 117.5L615.438 212H586.938V1.99999H624.438L645.138 164H645.738L640.938 96.5L639.438 1.99999H667.938ZM710.242 31.7C710.242 28.7 709.342 27.2 707.242 27.2C705.142 27.2 704.242 28.7 704.242 31.7V182.3C704.242 185.3 705.142 186.8 707.242 186.8C709.342 186.8 710.242 185.3 710.242 182.3V123.2H740.242V180.8C740.242 201.8 726.442 213.8 707.242 213.8C688.042 213.8 674.242 201.8 674.242 180.8V33.2C674.242 12.5 688.642 0.199991 707.542 0.199991C726.442 0.199991 740.242 12.2 740.242 33.2V81.5H710.242V31.7ZM788.313 1.99999V29H776.313V90.8H786.813V117.8H776.313V185H789.813V212H746.313V1.99999H788.313ZM857.313 64.7H887.313V95H893.312V122H887.313V212H857.313V200L856.713 199.7C853.713 209 847.713 213.8 840.513 213.8C829.413 213.8 821.313 201.8 821.313 180.8V139.4C821.313 121.4 822.513 112.4 833.913 108.8V108.2C822.513 104.3 821.313 95.6 821.313 77.6V33.2C821.313 12.5 835.713 0.199991 854.613 0.199991C873.513 0.199991 887.313 12.2 887.313 33.2V58.7H857.313V31.7C857.313 28.7 856.413 27.2 854.313 27.2C852.213 27.2 851.313 28.7 851.313 31.7V90.5C851.313 93.5 852.213 95 854.313 95H857.313V64.7ZM857.313 122H854.313C852.213 122 851.313 123.5 851.313 126.5V182.3C851.313 185.3 852.213 186.8 854.313 186.8C856.413 186.8 857.313 185.3 857.313 182.3V122ZM66.4 368.5V401.8C66.4 422.8 52.6 434.8 33.4 434.8C14.5 434.8 0.4 422.8 0.4 401.8V359.2H30.4V403.3C30.4 406.3 31.3 407.8 33.4 407.8C35.5 407.8 36.4 406.3 36.4 403.3V368.5C36.4 355.9 28.6 343.3 20.5 329.8C10.9 314.2 0.4 297.4 0.4 278.2V254.2C0.4 233.5 14.8 221.2 33.7 221.2C52.6 221.2 66.4 233.2 66.4 254.2V287.5H36.4V252.7C36.4 249.7 35.5 248.2 33.4 248.2C31.3 248.2 30.4 249.7 30.4 252.7V278.2C30.4 290.8 38.2 303.4 46.6 316.9C56.2 332.5 66.4 349.3 66.4 368.5ZM137.898 223V401.8C137.898 422.8 124.098 434.8 104.898 434.8C85.6984 434.8 71.8984 422.8 71.8984 401.8V223H101.898V403.3C101.898 406.3 102.798 407.8 104.898 407.8C106.998 407.8 107.898 406.3 107.898 403.3V223H137.898ZM209.969 253V316C209.969 337 199.169 346 176.969 346H173.969V433H143.969V223H177.269C199.169 223 209.969 232 209.969 253ZM179.969 254.5C179.969 251.5 179.069 250 176.969 250H173.969V319H176.969C179.069 319 179.969 317.5 179.969 314.5V254.5ZM282.039 253V316C282.039 337 271.239 346 249.039 346H246.039V433H216.039V223H249.339C271.239 223 282.039 232 282.039 253ZM252.039 254.5C252.039 251.5 251.139 250 249.039 250H246.039V319H249.039C251.139 319 252.039 317.5 252.039 314.5V254.5ZM354.109 254.2V401.8C354.109 422.8 340.309 434.8 321.109 434.8C301.909 434.8 288.109 422.8 288.109 401.8V254.2C288.109 233.5 302.509 221.2 321.409 221.2C340.309 221.2 354.109 233.2 354.109 254.2ZM324.109 252.7C324.109 249.7 323.209 248.2 321.109 248.2C319.009 248.2 318.109 249.7 318.109 252.7V403.3C318.109 406.3 319.009 407.8 321.109 407.8C323.209 407.8 324.109 406.3 324.109 403.3V252.7ZM396.18 344.5C396.18 341.5 395.28 340 393.18 340H390.18V433H360.18V223H393.48C415.38 223 426.18 232 426.18 253V295.6C426.18 313.6 424.98 322.3 413.58 326.2V326.8C424.98 330.4 426.18 339.4 426.18 357.4V405.4C426.18 418.9 426.48 423.1 429.78 432.4V433H398.88C396.78 424.9 396.18 419.5 396.18 405.7V344.5ZM396.18 254.5C396.18 251.5 395.28 250 393.18 250H390.18V313H393.18C395.28 313 396.18 311.5 396.18 308.5V254.5ZM490.75 223V250H475.75V433H445.75V250H430.75V223H490.75Z" fill="url(#paint0_radial_17_266)"/>
<defs>
<radialGradient id="paint0_radial_17_266" cx="0" cy="0" r="1" gradientUnits="userSpaceOnUse" gradientTransform="translate(454.915 233.5) rotate(180) scale(627.325 5615.88)">
<stop offset="0.1875" stop-color="white" stop-opacity="0.64"/>
<stop offset="0.9996" stop-opacity="0.66"/>
<stop offset="0.9997" stop-opacity="0.68"/>
</radialGradient>
</defs>
</svg>
