<svg width="647" height="214" viewBox="0 0 647 214" fill="none" xmlns="http://www.w3.org/2000/svg">
<path d="M116.7 1.99999L105.6 212H65.1L60 68.3L59.4 35.3H58.8L58.2 68.3L53.1 212H12.6L0 1.99999H34.5L34.8 142.7V179H35.4L36.6 142.7L43.2 1.99999H75L81.6 142.7L82.8 179H83.4L83.7 142.7V1.99999H116.7ZM161.602 1.99999V29H149.602V90.8H160.102V117.8H149.602V185H163.102V212H119.602V1.99999H161.602ZM233.648 32V68.6C233.648 86.6 232.448 95.3 221.048 99.2V99.8C232.448 103.4 233.648 112.4 233.648 130.4V182C233.648 203 222.848 212 200.648 212H167.648V1.99999H200.948C222.848 1.99999 233.648 11 233.648 32ZM203.648 33.5C203.648 30.5 202.748 29 200.648 29H197.648V86H200.648C202.748 86 203.648 84.5 203.648 81.5V33.5ZM203.648 117.5C203.648 114.5 202.748 113 200.648 113H197.648V185H200.648C202.748 185 203.648 183.5 203.648 180.5V117.5ZM332.086 32V182C332.086 203 321.286 212 299.086 212H266.086V1.99999H299.386C321.286 1.99999 332.086 11 332.086 32ZM302.086 33.5C302.086 30.5 301.186 29 299.086 29H296.086V185H299.086C301.186 185 302.086 183.5 302.086 180.5V33.5ZM380.156 1.99999V29H368.156V90.8H378.656V117.8H368.156V185H381.656V212H338.156V1.99999H380.156ZM451.603 147.5V180.8C451.603 201.8 437.803 213.8 418.603 213.8C399.703 213.8 385.603 201.8 385.603 180.8V138.2H415.603V182.3C415.603 185.3 416.503 186.8 418.603 186.8C420.703 186.8 421.603 185.3 421.603 182.3V147.5C421.603 134.9 413.803 122.3 405.703 108.8C396.103 93.2 385.603 76.4 385.603 57.2V33.2C385.603 12.5 400.003 0.199991 418.903 0.199991C437.803 0.199991 451.603 12.2 451.603 33.2V66.5H421.603V31.7C421.603 28.7 420.703 27.2 418.603 27.2C416.503 27.2 415.603 28.7 415.603 31.7V57.2C415.603 69.8 423.403 82.4 431.803 95.9C441.403 111.5 451.603 128.3 451.603 147.5ZM487.102 1.99999V212H457.102V1.99999H487.102ZM526.137 101.3H559.137V212H529.137V200L528.537 199.7C525.537 209 519.537 213.8 512.337 213.8C501.237 213.8 493.137 201.8 493.137 180.8V33.2C493.137 12.5 507.537 0.199991 526.437 0.199991C545.337 0.199991 559.137 12.2 559.137 33.2V81.5H529.137V31.7C529.137 28.7 528.237 27.2 526.137 27.2C524.037 27.2 523.137 28.7 523.137 31.7V183.5C523.137 186.5 524.037 188 526.137 188C528.237 188 529.137 186.5 529.137 183.5V128.3H526.137V101.3ZM646.207 1.99999V212H608.707L588.007 50H587.407L592.207 117.5L593.707 212H565.207V1.99999H602.707L623.407 164H624.007L619.207 96.5L617.707 1.99999H646.207Z" fill="url(#paint0_radial_17_120)"/>
<defs>
<radialGradient id="paint0_radial_17_120" cx="0" cy="0" r="1" gradientUnits="userSpaceOnUse" gradientTransform="translate(328.798 105) rotate(180) scale(451.426 3279.16)">
<stop offset="0.1875" stop-color="white" stop-opacity="0.64"/>
<stop offset="0.9996" stop-opacity="0.66"/>
<stop offset="0.9997" stop-opacity="0.68"/>
</radialGradient>
</defs>
</svg>
