<svg width="32" height="32" viewBox="0 0 32 32" fill="none" xmlns="http://www.w3.org/2000/svg">
<circle cx="15.804" cy="16.2958" r="12.2056" fill="white" stroke="#141414" stroke-width="7"/>
<path d="M11.2771 15.7958C11.001 15.7958 10.7771 16.0197 10.7771 16.2958C10.7771 16.572 11.001 16.7958 11.2771 16.7958V15.7958ZM20.3363 16.6494C20.5316 16.4541 20.5316 16.1375 20.3363 15.9423L17.1543 12.7603C16.9591 12.565 16.6425 12.565 16.4472 12.7603C16.252 12.9556 16.252 13.2721 16.4472 13.4674L19.2756 16.2958L16.4472 19.1243C16.252 19.3195 16.252 19.6361 16.4472 19.8314C16.6425 20.0266 16.9591 20.0266 17.1543 19.8314L20.3363 16.6494ZM11.2771 16.7958H19.9827V15.7958H11.2771V16.7958Z" fill="#141414"/>
</svg>
