<svg width="32" height="27" viewBox="0 0 32 27" fill="none" xmlns="http://www.w3.org/2000/svg">
<path d="M0.897849 22.8177C-0.0238649 23.4264 -0.277612 24.667 0.331089 25.5887C0.93979 26.5104 2.18044 26.7642 3.10215 26.1555L0.897849 22.8177ZM31.698 6.56873C31.9194 5.48657 31.2215 4.42987 30.1393 4.20854L12.5044 0.601701C11.4223 0.380367 10.3656 1.07821 10.1442 2.16038C9.92289 3.24254 10.6207 4.29924 11.7029 4.52057L27.3784 7.72665L24.1723 23.4021C23.951 24.4843 24.6488 25.541 25.731 25.7623C26.8132 25.9837 27.8698 25.2858 28.0912 24.2037L31.698 6.56873ZM3.10215 26.1555L30.8407 7.83689L28.6364 4.49906L0.897849 22.8177L3.10215 26.1555Z" fill="white" fill-opacity="0.6"/>
</svg>
