<svg width="789" height="214" viewBox="0 0 789 214" fill="none" xmlns="http://www.w3.org/2000/svg">
<path d="M108 1.99999V212H79.5L81.3 77L81 41H80.4L78.3 77L67.5 212H40.8L30 77L27.6 41H27L26.7 77L28.5 212H2.12342e-07V1.99999H48.9L52.5 121.7L54 155H54.6L55.8 121.7L59.1 1.99999H108ZM169.758 1.99999L186.258 212H153.258L151.458 161.9H143.058L141.258 212H111.258L127.758 1.99999H169.758ZM143.958 134.9H150.558L148.458 71.3L147.558 35H146.958L146.058 71.3L143.958 134.9ZM219.258 1.99999V212H189.258V1.99999H219.258ZM306.293 1.99999V212H268.793L248.093 50H247.493L252.293 117.5L253.793 212H225.293V1.99999H262.793L283.493 164H284.093L279.293 96.5L277.793 1.99999H306.293ZM371.098 1.99999V29H356.098V212H326.098V29H311.098V1.99999H371.098ZM417.586 1.99999V29H405.586V90.8H416.086V117.8H405.586V185H419.086V212H375.586V1.99999H417.586ZM504.633 1.99999V212H467.133L446.433 50H445.833L450.633 117.5L452.133 212H423.633V1.99999H461.133L481.833 164H482.433L477.633 96.5L476.133 1.99999H504.633ZM566.438 1.99999L582.938 212H549.938L548.138 161.9H539.738L537.938 212H507.938L524.438 1.99999H566.438ZM540.638 134.9H547.238L545.138 71.3L544.238 35H543.638L542.738 71.3L540.638 134.9ZM666.938 1.99999V212H629.438L608.738 50H608.138L612.938 117.5L614.438 212H585.938V1.99999H623.438L644.138 164H644.738L639.938 96.5L638.438 1.99999H666.938ZM709.242 31.7C709.242 28.7 708.342 27.2 706.242 27.2C704.142 27.2 703.242 28.7 703.242 31.7V182.3C703.242 185.3 704.142 186.8 706.242 186.8C708.342 186.8 709.242 185.3 709.242 182.3V123.2H739.242V180.8C739.242 201.8 725.442 213.8 706.242 213.8C687.042 213.8 673.242 201.8 673.242 180.8V33.2C673.242 12.5 687.642 0.199991 706.542 0.199991C725.442 0.199991 739.242 12.2 739.242 33.2V81.5H709.242V31.7ZM787.313 1.99999V29H775.313V90.8H785.813V117.8H775.313V185H788.813V212H745.313V1.99999H787.313Z" fill="url(#paint0_radial_17_266)"/>
<defs>
<radialGradient id="paint0_radial_17_266" cx="0" cy="0" r="1" gradientUnits="userSpaceOnUse" gradientTransform="translate(399.365 111) rotate(180) scale(552.431 2452.91)">
<stop offset="0.1875" stop-color="white" stop-opacity="0.64"/>
<stop offset="0.9996" stop-opacity="0.66"/>
<stop offset="0.9997" stop-opacity="0.68"/>
</radialGradient>
</defs>
</svg>
