<svg width="1057" height="367" viewBox="0 0 1057 367" fill="none" xmlns="http://www.w3.org/2000/svg">
<path d="M55.5 26.5V151.5C55.5 169 46.5 176.5 28 176.5H0.5V1.49999H28.25C46.5 1.49999 55.5 9 55.5 26.5ZM30.5 27.75C30.5 25.25 29.75 24 28 24H25.5V154H28C29.75 154 30.5 152.75 30.5 150.25V27.75ZM95.5586 1.49999V24H85.5586V75.5H94.3086V98H85.5586V154H96.8086V176.5H60.5586V1.49999H95.5586ZM159.098 1.49999L146.098 176.5H111.098L98.0977 1.49999H125.598L129.598 149H130.098L134.098 1.49999H159.098ZM196.633 1.49999V24H186.633V75.5H195.383V98H186.633V154H197.883V176.5H161.633V1.49999H196.633ZM201.672 1.49999H226.672V154H237.172V176.5H201.672V1.49999ZM295.979 27.5V150.5C295.979 168 284.479 178 268.479 178C252.479 178 240.979 168 240.979 150.5V27.5C240.979 10.25 252.979 -7.51019e-06 268.729 -7.51019e-06C284.479 -7.51019e-06 295.979 10 295.979 27.5ZM270.979 26.25C270.979 23.75 270.229 22.5 268.479 22.5C266.729 22.5 265.979 23.75 265.979 26.25V151.75C265.979 154.25 266.729 155.5 268.479 155.5C270.229 155.5 270.979 154.25 270.979 151.75V26.25ZM356.037 26.5V79C356.037 96.5 347.037 104 328.537 104H326.037V176.5H301.037V1.49999H328.787C347.037 1.49999 356.037 9 356.037 26.5ZM331.037 27.75C331.037 25.25 330.287 24 328.537 24H326.037V81.5H328.537C330.287 81.5 331.037 80.25 331.037 77.75V27.75ZM386.096 1.49999V176.5H361.096V1.49999H386.096ZM458.625 1.49999V176.5H427.375L410.125 41.5H409.625L413.625 97.75L414.875 176.5H391.125V1.49999H422.375L439.625 136.5H440.125L436.125 80.25L434.875 1.49999H458.625ZM491.379 84.25H518.879V176.5H493.879V166.5L493.379 166.25C490.879 174 485.879 178 479.879 178C470.629 178 463.879 168 463.879 150.5V27.5C463.879 10.25 475.879 -7.51019e-06 491.629 -7.51019e-06C507.379 -7.51019e-06 518.879 10 518.879 27.5V67.75H493.879V26.25C493.879 23.75 493.129 22.5 491.379 22.5C489.629 22.5 488.879 23.75 488.879 26.25V152.75C488.879 155.25 489.629 156.5 491.379 156.5C493.129 156.5 493.879 155.25 493.879 152.75V106.75H491.379V84.25ZM600.898 122.75V150.5C600.898 168 589.398 178 573.398 178C557.648 178 545.898 168 545.898 150.5V115H570.898V151.75C570.898 154.25 571.648 155.5 573.398 155.5C575.148 155.5 575.898 154.25 575.898 151.75V122.75C575.898 112.25 569.398 101.75 562.648 90.5C554.648 77.5 545.898 63.5 545.898 47.5V27.5C545.898 10.25 557.898 -7.51019e-06 573.648 -7.51019e-06C589.398 -7.51019e-06 600.898 10 600.898 27.5V55.25H575.898V26.25C575.898 23.75 575.148 22.5 573.398 22.5C571.648 22.5 570.898 23.75 570.898 26.25V47.5C570.898 58 577.398 68.5 584.398 79.75C592.398 92.75 600.898 106.75 600.898 122.75ZM654.23 1.49999V24H641.73V176.5H616.73V24H604.23V1.49999H654.23ZM712.971 1.49999V150.5C712.971 168 701.471 178 685.471 178C669.471 178 657.971 168 657.971 150.5V1.49999H682.971V151.75C682.971 154.25 683.721 155.5 685.471 155.5C687.221 155.5 687.971 154.25 687.971 151.75V1.49999H712.971ZM773.029 26.5V151.5C773.029 169 764.029 176.5 745.529 176.5H718.029V1.49999H745.779C764.029 1.49999 773.029 9 773.029 26.5ZM748.029 27.75C748.029 25.25 747.279 24 745.529 24H743.029V154H745.529C747.279 154 748.029 152.75 748.029 150.25V27.75ZM813.088 1.49999V24H803.088V75.5H811.838V98H803.088V154H814.338V176.5H778.088V1.49999H813.088ZM885.627 1.49999V176.5H854.377L837.127 41.5H836.627L840.627 97.75L841.877 176.5H818.127V1.49999H849.377L866.627 136.5H867.127L863.127 80.25L861.877 1.49999H885.627ZM945.381 122.75V150.5C945.381 168 933.881 178 917.881 178C902.131 178 890.381 168 890.381 150.5V115H915.381V151.75C915.381 154.25 916.131 155.5 917.881 155.5C919.631 155.5 920.381 154.25 920.381 151.75V122.75C920.381 112.25 913.881 101.75 907.131 90.5C899.131 77.5 890.381 63.5 890.381 47.5V27.5C890.381 10.25 902.381 -7.51019e-06 918.131 -7.51019e-06C933.881 -7.51019e-06 945.381 10 945.381 27.5V55.25H920.381V26.25C920.381 23.75 919.631 22.5 917.881 22.5C916.131 22.5 915.381 23.75 915.381 26.25V47.5C915.381 58 921.881 68.5 928.881 79.75C936.881 92.75 945.381 106.75 945.381 122.75ZM998.713 1.49999V24H986.213V176.5H961.213V24H948.713V1.49999H998.713ZM1056.95 122.75V150.5C1056.95 168 1045.45 178 1029.45 178C1013.7 178 1001.95 168 1001.95 150.5V115H1026.95V151.75C1026.95 154.25 1027.7 155.5 1029.45 155.5C1031.2 155.5 1031.95 154.25 1031.95 151.75V122.75C1031.95 112.25 1025.45 101.75 1018.7 90.5C1010.7 77.5 1001.95 63.5 1001.95 47.5V27.5C1001.95 10.25 1013.95 -7.51019e-06 1029.7 -7.51019e-06C1045.45 -7.51019e-06 1056.95 10 1056.95 27.5V55.25H1031.95V26.25C1031.95 23.75 1031.2 22.5 1029.45 22.5C1027.7 22.5 1026.95 23.75 1026.95 26.25V47.5C1026.95 58 1033.45 68.5 1040.45 79.75C1048.45 92.75 1056.95 106.75 1056.95 122.75ZM55 311.75V339.5C55 357 43.5 367 27.5 367C11.75 367 9.49949e-08 357 9.49949e-08 339.5V304H25V340.75C25 343.25 25.75 344.5 27.5 344.5C29.25 344.5 30 343.25 30 340.75V311.75C30 301.25 23.5 290.75 16.75 279.5C8.75 266.5 9.49949e-08 252.5 9.49949e-08 236.5V216.5C9.49949e-08 199.25 12 189 27.75 189C43.5 189 55 199 55 216.5V244.25H30V215.25C30 212.75 29.25 211.5 27.5 211.5C25.75 211.5 25 212.75 25 215.25V236.5C25 247 31.5 257.5 38.5 268.75C46.5 281.75 55 295.75 55 311.75ZM84.582 190.5V365.5H59.582V190.5H84.582ZM157.111 190.5V365.5H125.861L108.611 230.5H108.111L112.111 286.75L113.361 365.5H89.6113V190.5H120.861L138.111 325.5H138.611L134.611 269.25L133.361 190.5H157.111ZM192.365 215.25C192.365 212.75 191.615 211.5 189.865 211.5C188.115 211.5 187.365 212.75 187.365 215.25V340.75C187.365 343.25 188.115 344.5 189.865 344.5C191.615 344.5 192.365 343.25 192.365 340.75V291.5H217.365V339.5C217.365 357 205.865 367 189.865 367C173.865 367 162.365 357 162.365 339.5V216.5C162.365 199.25 174.365 189 190.115 189C205.865 189 217.365 199 217.365 216.5V256.75H192.365V215.25ZM257.424 190.5V213H247.424V264.5H256.174V287H247.424V343H258.674V365.5H222.424V190.5H257.424ZM284.924 365.5V343C284.924 327 293.674 308.25 301.674 291C308.424 276 314.924 262 314.924 251.5V215.25C314.924 212.75 314.174 211.5 312.424 211.5C310.674 211.5 309.924 212.75 309.924 215.25V256.75H284.924V216.5C284.924 199 296.424 189 312.174 189C327.924 189 339.924 199.25 339.924 216.5V251.5C339.924 267.5 331.174 286.25 323.174 303.5C316.174 318 309.924 331.5 309.924 341.5V343H339.924V365.5H284.924ZM399.982 216.5V339.5C399.982 357 388.482 367 372.482 367C356.482 367 344.982 357 344.982 339.5V216.5C344.982 199.25 356.982 189 372.732 189C388.482 189 399.982 199 399.982 216.5ZM374.982 215.25C374.982 212.75 374.232 211.5 372.482 211.5C370.732 211.5 369.982 212.75 369.982 215.25V340.75C369.982 343.25 370.732 344.5 372.482 344.5C374.232 344.5 374.982 343.25 374.982 340.75V215.25ZM460.041 216.5V339.5C460.041 357 448.541 367 432.541 367C416.541 367 405.041 357 405.041 339.5V216.5C405.041 199.25 417.041 189 432.791 189C448.541 189 460.041 199 460.041 216.5ZM435.041 215.25C435.041 212.75 434.291 211.5 432.541 211.5C430.791 211.5 430.041 212.75 430.041 215.25V340.75C430.041 343.25 430.791 344.5 432.541 344.5C434.291 344.5 435.041 343.25 435.041 340.75V215.25ZM517.6 190.5V213L495.1 365.5H470.1L492.35 213.5L491.85 213H465.1V190.5H517.6Z" fill="url(#paint0_radial_3_2)"/>
<defs>
<radialGradient id="paint0_radial_3_2" cx="0" cy="0" r="1" gradientUnits="userSpaceOnUse" gradientTransform="translate(549 137.5) rotate(180) scale(756.5 3279.16)">
<stop offset="0.1875" stop-color="white" stop-opacity="0.64"/>
<stop offset="0.9996" stop-opacity="0.66"/>
<stop offset="0.9997" stop-opacity="0.68"/>
</radialGradient>
</defs>
</svg>
