<svg width="186" height="214" viewBox="0 0 186 214" fill="none" xmlns="http://www.w3.org/2000/svg">
<path d="M66.4 147.5V180.8C66.4 201.8 52.6 213.8 33.4 213.8C14.5 213.8 0.4 201.8 0.4 180.8V138.2H30.4V182.3C30.4 185.3 31.3 186.8 33.4 186.8C35.5 186.8 36.4 185.3 36.4 182.3V147.5C36.4 134.9 28.6 122.3 20.5 108.8C10.9 93.2 0.4 76.4 0.4 57.2V33.2C0.4 12.5 14.8 0.199991 33.7 0.199991C52.6 0.199991 66.4 12.2 66.4 33.2V66.5H36.4V31.7C36.4 28.7 35.5 27.2 33.4 27.2C31.3 27.2 30.4 28.7 30.4 31.7V57.2C30.4 69.8 38.2 82.4 46.6 95.9C56.2 111.5 66.4 128.3 66.4 147.5ZM113.898 1.99999V29H101.898V90.8H112.398V117.8H101.898V185H115.398V212H71.8984V1.99999H113.898ZM185.945 33.2V180.8C185.945 201.8 172.145 213.8 152.945 213.8C133.745 213.8 119.945 201.8 119.945 180.8V33.2C119.945 12.5 134.345 0.199991 153.245 0.199991C172.145 0.199991 185.945 12.2 185.945 33.2ZM155.945 31.7C155.945 28.7 155.045 27.2 152.945 27.2C150.845 27.2 149.945 28.7 149.945 31.7V182.3C149.945 185.3 150.845 186.8 152.945 186.8C155.045 186.8 155.945 185.3 155.945 182.3V31.7Z" fill="url(#paint0_radial_17_193)"/>
<defs>
<radialGradient id="paint0_radial_17_193" cx="0" cy="0" r="1" gradientUnits="userSpaceOnUse" gradientTransform="translate(95.5886 105) rotate(180) scale(133.985 3279.16)">
<stop offset="0.1875" stop-color="white" stop-opacity="0.64"/>
<stop offset="0.9996" stop-opacity="0.66"/>
<stop offset="0.9997" stop-opacity="0.68"/>
</radialGradient>
</defs>
</svg>
