<svg width="1007" height="214" viewBox="0 0 1007 214" fill="none" xmlns="http://www.w3.org/2000/svg">
<path d="M116.7 1.99999L105.6 212H65.1L60 68.3L59.4 35.3H58.8L58.2 68.3L53.1 212H12.6L0 1.99999H34.5L34.8 142.7V179H35.4L36.6 142.7L43.2 1.99999H75L81.6 142.7L82.8 179H83.4L83.7 142.7V1.99999H116.7ZM161.602 1.99999V29H149.602V90.8H160.102V117.8H149.602V185H163.102V212H119.602V1.99999H161.602ZM233.648 32V68.6C233.648 86.6 232.448 95.3 221.048 99.2V99.8C232.448 103.4 233.648 112.4 233.648 130.4V182C233.648 203 222.848 212 200.648 212H167.648V1.99999H200.948C222.848 1.99999 233.648 11 233.648 32ZM203.648 33.5C203.648 30.5 202.748 29 200.648 29H197.648V86H200.648C202.748 86 203.648 84.5 203.648 81.5V33.5ZM203.648 117.5C203.648 114.5 202.748 113 200.648 113H197.648V185H200.648C202.748 185 203.648 183.5 203.648 180.5V117.5ZM332.086 32V182C332.086 203 321.286 212 299.086 212H266.086V1.99999H299.386C321.286 1.99999 332.086 11 332.086 32ZM302.086 33.5C302.086 30.5 301.186 29 299.086 29H296.086V185H299.086C301.186 185 302.086 183.5 302.086 180.5V33.5ZM380.156 1.99999V29H368.156V90.8H378.656V117.8H368.156V185H381.656V212H338.156V1.99999H380.156ZM456.403 1.99999L440.803 212H398.803L383.203 1.99999H416.203L421.003 179H421.603L426.403 1.99999H456.403ZM501.445 1.99999V29H489.445V90.8H499.945V117.8H489.445V185H502.945V212H459.445V1.99999H501.445ZM507.492 1.99999H537.492V185H550.092V212H507.492V1.99999ZM620.66 33.2V180.8C620.66 201.8 606.86 213.8 587.66 213.8C568.46 213.8 554.66 201.8 554.66 180.8V33.2C554.66 12.5 569.06 0.199991 587.96 0.199991C606.86 0.199991 620.66 12.2 620.66 33.2ZM590.66 31.7C590.66 28.7 589.76 27.2 587.66 27.2C585.56 27.2 584.66 28.7 584.66 31.7V182.3C584.66 185.3 585.56 186.8 587.66 186.8C589.76 186.8 590.66 185.3 590.66 182.3V31.7ZM692.73 32V95C692.73 116 681.93 125 659.73 125H656.73V212H626.73V1.99999H660.03C681.93 1.99999 692.73 11 692.73 32ZM662.73 33.5C662.73 30.5 661.83 29 659.73 29H656.73V98H659.73C661.83 98 662.73 96.5 662.73 93.5V33.5ZM806.801 1.99999V212H778.301L780.101 77L779.801 41H779.201L777.101 77L766.301 212H739.601L728.801 77L726.401 41H725.801L725.501 77L727.301 212H698.801V1.99999H747.701L751.301 121.7L752.801 155H753.401L754.601 121.7L757.901 1.99999H806.801ZM855.059 1.99999V29H843.059V90.8H853.559V117.8H843.059V185H856.559V212H813.059V1.99999H855.059ZM942.105 1.99999V212H904.605L883.905 50H883.305L888.105 117.5L889.605 212H861.105V1.99999H898.605L919.305 164H919.905L915.105 96.5L913.605 1.99999H942.105ZM1006.91 1.99999V29H991.91V212H961.91V29H946.91V1.99999H1006.91Z" fill="url(#paint0_radial_16_21)"/>
<defs>
<radialGradient id="paint0_radial_16_21" cx="0" cy="0" r="1" gradientUnits="userSpaceOnUse" gradientTransform="translate(507.961 105) rotate(180) scale(697.409 3279.16)">
<stop offset="0.1875" stop-color="white" stop-opacity="0.64"/>
<stop offset="0.9996" stop-opacity="0.66"/>
<stop offset="0.9997" stop-opacity="0.68"/>
</radialGradient>
</defs>
</svg>
