<svg width="1045" height="214" viewBox="0 0 1045 214" fill="none" xmlns="http://www.w3.org/2000/svg">
<path d="M108 1.99999V212H79.5L81.3 77L81 41H80.4L78.3 77L67.5 212H40.8L30 77L27.6 41H27L26.7 77L28.5 212H2.12342e-07V1.99999H48.9L52.5 121.7L54 155H54.6L55.8 121.7L59.1 1.99999H108ZM156.258 1.99999V29H144.258V90.8H154.758V117.8H144.258V185H157.758V212H114.258V1.99999H156.258ZM228.305 32V182C228.305 203 217.505 212 195.305 212H162.305V1.99999H195.605C217.505 1.99999 228.305 11 228.305 32ZM198.305 33.5C198.305 30.5 197.405 29 195.305 29H192.305V185H195.305C197.405 185 198.305 183.5 198.305 180.5V33.5ZM264.375 1.99999V212H234.375V1.99999H264.375ZM325.91 1.99999L342.41 212H309.41L307.61 161.9H299.21L297.41 212H267.41L283.91 1.99999H325.91ZM300.11 134.9H306.71L304.61 71.3L303.71 35H303.11L302.21 71.3L300.11 134.9ZM438.363 1.99999V180.8C438.363 201.8 424.563 213.8 405.363 213.8C386.163 213.8 372.363 201.8 372.363 180.8V1.99999H402.363V182.3C402.363 185.3 403.263 186.8 405.363 186.8C407.463 186.8 408.363 185.3 408.363 182.3V1.99999H438.363ZM525.434 1.99999V212H487.934L467.234 50H466.634L471.434 117.5L472.934 212H444.434V1.99999H481.934L502.634 164H503.234L498.434 96.5L496.934 1.99999H525.434ZM597.738 32V68.6C597.738 86.6 596.538 95.3 585.138 99.2V99.8C596.538 103.4 597.738 112.4 597.738 130.4V182C597.738 203 586.938 212 564.738 212H531.738V1.99999H565.038C586.938 1.99999 597.738 11 597.738 32ZM567.738 33.5C567.738 30.5 566.838 29 564.738 29H561.738V86H564.738C566.838 86 567.738 84.5 567.738 81.5V33.5ZM567.738 117.5C567.738 114.5 566.838 113 564.738 113H561.738V185H564.738C566.838 185 567.738 183.5 567.738 180.5V117.5ZM669.223 33.2V180.8C669.223 201.8 655.423 213.8 636.223 213.8C617.023 213.8 603.223 201.8 603.223 180.8V33.2C603.223 12.5 617.623 0.199991 636.523 0.199991C655.423 0.199991 669.223 12.2 669.223 33.2ZM639.223 31.7C639.223 28.7 638.323 27.2 636.223 27.2C634.123 27.2 633.223 28.7 633.223 31.7V182.3C633.223 185.3 634.123 186.8 636.223 186.8C638.323 186.8 639.223 185.3 639.223 182.3V31.7ZM733.793 1.99999V29H718.793V212H688.793V29H673.793V1.99999H733.793ZM804.281 1.99999V212H774.281V120.8H768.281V212H738.281V1.99999H768.281V93.8H774.281V1.99999H804.281ZM852.352 1.99999V29H840.352V90.8H850.852V117.8H840.352V185H853.852V212H810.352V1.99999H852.352ZM894.398 123.5C894.398 120.5 893.498 119 891.398 119H888.398V212H858.398V1.99999H891.698C913.598 1.99999 924.398 11 924.398 32V74.6C924.398 92.6 923.198 101.3 911.798 105.2V105.8C923.198 109.4 924.398 118.4 924.398 136.4V184.4C924.398 197.9 924.698 202.1 927.998 211.4V212H897.098C894.998 203.9 894.398 198.5 894.398 184.7V123.5ZM894.398 33.5C894.398 30.5 893.498 29 891.398 29H888.398V92H891.398C893.498 92 894.398 90.5 894.398 87.5V33.5ZM972.469 1.99999V29H960.469V90.8H970.969V117.8H960.469V185H973.969V212H930.469V1.99999H972.469ZM1044.52 32V182C1044.52 203 1033.72 212 1011.52 212H978.516V1.99999H1011.82C1033.72 1.99999 1044.52 11 1044.52 32ZM1014.52 33.5C1014.52 30.5 1013.62 29 1011.52 29H1008.52V185H1011.52C1013.62 185 1014.52 183.5 1014.52 180.5V33.5Z" fill="url(#paint0_radial_3_2)"/>
<defs>
<radialGradient id="paint0_radial_3_2" cx="0" cy="0" r="1" gradientUnits="userSpaceOnUse" gradientTransform="translate(548 105) rotate(180) scale(756.5 3279.16)">
<stop offset="0.1875" stop-color="white" stop-opacity="0.64"/>
<stop offset="0.9996" stop-opacity="0.66"/>
<stop offset="0.9997" stop-opacity="0.68"/>
</radialGradient>
</defs>
</svg>
