<svg width="1592" height="110" viewBox="0 0 1592 110" fill="none" xmlns="http://www.w3.org/2000/svg">
<rect x="2" y="2" width="496" height="106" rx="53" stroke="white" stroke-opacity="0.2" stroke-width="4" stroke-dasharray="8 8"/>
<path d="M141.4 50.55C141.4 60.855 146.635 67.05 155.335 67.05C162.37 67.05 166.855 63.015 168.31 55.35H174.61C172.825 66.3 165.58 72.9 155.32 72.9C143.305 72.9 135.1 63.84 135.1 50.55C135.1 37.245 143.305 28.2 155.32 28.2C165.58 28.2 172.825 34.8 174.61 45.75H168.31C166.855 38.085 162.37 34.05 155.335 34.05C146.635 34.05 141.4 40.245 141.4 50.55ZM178.478 55.455C178.478 45 184.958 38.025 194.648 38.025C204.338 38.025 210.818 45 210.818 55.455C210.818 65.91 204.338 72.9 194.648 72.9C184.958 72.9 178.478 65.91 178.478 55.455ZM184.553 55.455C184.553 62.85 188.408 67.41 194.663 67.41C200.903 67.41 204.743 62.85 204.743 55.455C204.743 48.06 200.903 43.515 194.663 43.515C188.408 43.515 184.553 48.075 184.553 55.455ZM220.928 54.105V72H214.853V38.925H220.928V48.48C222.533 41.97 227.033 38.025 233.198 38.025C240.743 38.025 245.243 43.905 245.243 53.505V72H239.168V53.505C239.168 46.875 236.348 43.515 230.678 43.515C224.573 43.515 220.928 47.415 220.928 54.105ZM269.748 71.745C267.198 72.51 264.918 72.885 262.908 72.885C256.323 72.885 252.723 68.82 252.723 61.05V44.025H248.223V38.925H252.723V31.305H258.798V38.925H269.748V44.025H258.798V61.065C258.798 65.445 260.388 67.485 263.928 67.485C265.323 67.485 267.213 67.17 269.748 66.495V71.745ZM273.639 50.445C273.639 42.84 279.444 38.025 288.699 38.025C298.494 38.025 304.404 43.395 304.404 52.38V72H298.329V63.105C296.724 69.195 291.684 72.9 284.709 72.9C277.479 72.9 272.664 68.91 272.664 62.925C272.664 56.88 277.584 53.145 285.564 53.145H298.329V52.38C298.329 46.935 294.579 43.53 288.594 43.53C282.489 43.53 279.714 46.275 279.714 50.445H273.639ZM298.329 58.245H285.504C281.034 58.245 278.664 59.805 278.664 62.715C278.664 65.865 281.394 67.605 286.344 67.605C293.364 67.605 298.329 64.095 298.329 59.16V58.245ZM314.397 55.455C314.397 62.85 318.252 67.41 324.507 67.41C329.982 67.41 332.892 63.9 333.702 59.535H339.777C338.787 67.05 333.372 72.9 324.492 72.9C314.802 72.9 308.322 65.91 308.322 55.455C308.322 45 314.802 38.025 324.492 38.025C333.372 38.025 338.802 43.875 339.777 51.39H333.702C332.907 47.025 329.997 43.515 324.507 43.515C318.252 43.515 314.397 48.06 314.397 55.455ZM363.674 71.745C361.124 72.51 358.844 72.885 356.834 72.885C350.249 72.885 346.649 68.82 346.649 61.05V44.025H342.149V38.925H346.649V31.305H352.724V38.925H363.674V44.025H352.724V61.065C352.724 65.445 354.314 67.485 357.854 67.485C359.249 67.485 361.139 67.17 363.674 66.495V71.745Z" fill="white" fill-opacity="0.2"/>
<rect x="1094" y="2" width="496" height="106" rx="53" stroke="white" stroke-opacity="0.2" stroke-width="4" stroke-dasharray="8 8"/>
<path d="M1221.07 72H1214.53L1230.52 29.1H1239.97L1255.75 72H1249.06L1245.14 61.245H1225.04L1221.07 72ZM1227.14 55.545H1243.06L1235.17 33.855L1227.14 55.545ZM1264.72 27.6V49.125C1266.43 42.33 1270.98 38.025 1276.99 38.025C1285.15 38.025 1290.99 45.3 1290.99 55.455C1290.99 65.61 1285.15 72.9 1276.99 72.9C1270.98 72.9 1266.43 68.58 1264.72 61.785V72H1258.65V27.6H1264.72ZM1264.72 55.455C1264.72 63 1268.56 67.56 1274.92 67.56C1281.39 67.56 1284.91 63.3 1284.91 55.455C1284.91 47.61 1281.4 43.365 1274.92 43.365C1268.56 43.365 1264.72 47.91 1264.72 55.455ZM1294.28 55.455C1294.28 45 1300.76 38.025 1310.45 38.025C1320.14 38.025 1326.62 45 1326.62 55.455C1326.62 65.91 1320.14 72.9 1310.45 72.9C1300.76 72.9 1294.28 65.91 1294.28 55.455ZM1300.36 55.455C1300.36 62.85 1304.21 67.41 1310.47 67.41C1316.71 67.41 1320.55 62.85 1320.55 55.455C1320.55 48.06 1316.71 43.515 1310.47 43.515C1304.21 43.515 1300.36 48.075 1300.36 55.455ZM1354.82 56.82V38.925H1360.9V72H1354.82V62.46C1353.22 68.955 1348.72 72.9 1342.55 72.9C1335.01 72.9 1330.51 67.02 1330.51 57.42V38.925H1336.58V57.42C1336.58 64.05 1339.4 67.41 1345.07 67.41C1351.18 67.41 1354.82 63.51 1354.82 56.82ZM1386.02 71.745C1383.47 72.51 1381.19 72.885 1379.18 72.885C1372.6 72.885 1369 68.82 1369 61.05V44.025H1364.5V38.925H1369V31.305H1375.07V38.925H1386.02V44.025H1375.07V61.065C1375.07 65.445 1376.66 67.485 1380.2 67.485C1381.6 67.485 1383.49 67.17 1386.02 66.495V71.745ZM1427.95 56.82V38.925H1434.02V72H1427.95V62.46C1426.34 68.955 1421.84 72.9 1415.68 72.9C1408.13 72.9 1403.63 67.02 1403.63 57.42V38.925H1409.71V57.42C1409.71 64.05 1412.53 67.41 1418.2 67.41C1424.3 67.41 1427.95 63.51 1427.95 56.82ZM1452.26 38.025C1461.28 38.025 1466.39 42.255 1466.39 48.93H1460.47C1460.47 45.54 1457.56 43.275 1452.26 43.275C1447.48 43.275 1444.21 45.12 1444.21 47.88C1444.21 51.015 1448.41 51.66 1452.1 52.245L1454.3 52.59C1459.84 53.46 1467.61 54.69 1467.61 62.7C1467.61 69.225 1462.45 72.9 1452.82 72.9C1442.78 72.9 1437.7 68.91 1437.7 61.725H1443.62C1443.62 65.535 1446.56 67.65 1452.8 67.65C1458.43 67.65 1461.7 65.94 1461.7 62.85C1461.7 59.235 1457.24 58.44 1452.97 57.705L1450.76 57.33C1445.74 56.475 1438.28 55.23 1438.28 48.015C1438.28 41.925 1443.59 38.025 1452.26 38.025Z" fill="white" fill-opacity="0.2"/>
</svg>
